With: Paz Vega, Christopher McDonald and Tony Curran

Anthony en Julian, twee doelloze nietsnutten, besluiten een detectivebureau te beginnen. Hun eerste zaak betreft die van Catalina, een sexy stijlvolle escortdame, die cruciale bewijsstukken heeft in een internationaal schandaal. De twee detectives worden belast met het beschermen van "Cat". Al snel krijgen ze te maken met de Russische maffia, een corrupte Amerikaanse senator en een meedogenloze huurmoordenaar die niets uit de weg gaan om te voorkomen dat de waarheid naar buiten wordt gebracht.

When a sexy, high-end escort holds the key evidence to a scandalous government cover-up, two bumbling young detectives become her unlikely protectors from a ruthless assassin hired to silence her. 

------------------------ Dutch Friends ------------------------
---------------------------------------------------------------
- Bezoek ook eens mijn vrienden op:  http://www.Film-Test.nl --
----- voor mijn Nederlandse Sync. ondertitels ---- en meer ----
------- http://www.Film-Test.nl ---- voor Films en meer -------
---------------------------------------------------------------

General:

Complete name                    : Cat run\Cat run.avi
Format                           : AVI
Format/Info                      : Audio Video Interleave
File size                        : 1.43 GiB
Duration                         : 1h 41mn
Overall bit rate                 : 2 018 Kbps

Video:

Format                           : MPEG-4 Visual
Format profile                   : Simple@L3
Format settings, BVOP            : No
Format settings, QPel            : No
Format settings, GMC             : No warppoints
Format settings, Matrix          : Default (H.263)
Codec ID                         : XVID
Codec ID/Hint                    : XviD
Duration                         : 1h 41mn
Bit rate                         : 1 559 Kbps
Width                            : 720 pixels
Height                           : 304 pixels
Display aspect ratio             : 2.35:1
Frame rate                       : 25.000 fps
Color space                      : YUV
Chroma subsampling               : 4:2:0
Bit depth                        : 8 bits
Scan type                        : Progressive
Compression mode                 : Lossy
Bits/(Pixel*Frame)               : 0.285
Stream size                      : 1.11 GiB (77%)
Writing library                  : XviD 1.1.2 (UTC 2006-11-01)

Audio:

Format                           : AC-3
Format/Info                      : Audio Coding 3
Mode extension                   : CM (complete main)
Codec ID                         : 2000
Duration                         : 1h 41mn
Bit rate mode                    : Constant
Bit rate                         : 448 Kbps
Channel(s)                       : 6 channels
Channel positions                : Front: L C R, Side: L R, LFE
Sampling rate                    : 48.0 KHz
Bit depth                        : 16 bits
Compression mode                 : Lossy
Stream size                      : 326 MiB (22%)
Alignment                        : Aligned on interleaves
Interleave, duration             : 32 ms (0.80 video frame)
Interleave, preload duration     : 256 ms


